<svg xmlns="http://www.w3.org/2000/svg" version="1.1" xmlns:xlink="http://www.w3.org/1999/xlink" xmlns:svgjs="http://svgjs.dev/svgjs" width="2000" height="656" viewBox="0 0 2000 656"><g transform="matrix(1,0,0,1,-1.2121212121212466,-0.12646335624867788)"><svg viewBox="0 0 396 130" data-background-color="#ffffff" preserveAspectRatio="xMidYMid meet" height="656" width="2000" xmlns="http://www.w3.org/2000/svg" xmlns:xlink="http://www.w3.org/1999/xlink"><g id="tight-bounds" transform="matrix(1,0,0,1,0.2400000000000091,0.025061335841968457)"><svg viewBox="0 0 395.52 129.9498773283161" height="129.9498773283161" width="395.52"><g><svg viewBox="0 0 395.52 129.9498773283161" height="129.9498773283161" width="395.52"><g><svg viewBox="0 0 395.52 129.9498773283161" height="129.9498773283161" width="395.52"><g id="textblocktransform"><svg viewBox="0 0 395.52 129.9498773283161" height="129.9498773283161" width="395.52" id="textblock"><g><svg viewBox="0 0 395.52 129.9498773283161" height="129.9498773283161" width="395.52"><rect width="395.52" height="129.9498773283161" x="0" y="0" opacity="1" fill="#a61713" data-fill-palette-color="tertiary"></rect><g transform="matrix(1,0,0,1,23.607599999999998,23.607599999999998)"><svg width="348.3048" viewBox="0.05 -39.65 212.57999999999998 50.5" height="82.7346773283161" data-palette-color="#ffffff"><path d="M21.5-26.45L14.5 0.1Q13.2 4.9 10.3 7.65 7.4 10.4 2.55 10.85L2.55 10.85 1.85 6.5Q5 5.85 6.58 4.42 8.15 3 9.05 0L9.05 0 6.75 0 0.05-26.45 6.3-26.45 10.7-4.1 15.4-26.45 21.5-26.45ZM42.55-26.45L42.55 0 37.2 0 36.9-3.35Q35.65-1.3 34.1-0.28 32.55 0.75 30.5 0.75L30.5 0.75Q27.6 0.75 25.92-1.3 24.25-3.35 24.25-6.65L24.25-6.65 24.25-26.45 30.4-26.45 30.4-7Q30.4-3.9 32.5-3.9L32.5-3.9Q33.7-3.9 34.65-4.83 35.6-5.75 36.4-7.45L36.4-7.45 36.4-26.45 42.55-26.45ZM66.2-29.85L67.75-25.1Q66.7-24.6 65.22-24.4 63.75-24.2 61.55-24.2L61.55-24.2Q63.65-23.2 64.67-21.53 65.7-19.85 65.7-17.4L65.7-17.4Q65.7-13.4 63.25-10.95 60.8-8.5 56.6-8.5L56.6-8.5Q55.35-8.5 54.05-8.9L54.05-8.9Q53.15-8.15 53.15-6.85L53.15-6.85Q53.15-5.85 53.7-5.35 54.25-4.85 55.75-4.85L55.75-4.85 58.55-4.85Q62.55-4.85 64.9-2.78 67.25-0.7 67.25 2.5L67.25 2.5Q67.25 6.3 64.32 8.58 61.4 10.85 56 10.85L56 10.85Q50.3 10.85 48.02 8.75 45.75 6.65 45.75 2.6L45.75 2.6 51.2 2.6Q51.2 4.75 52.2 5.65 53.2 6.55 56.05 6.55L56.05 6.55Q58.8 6.55 59.95 5.6 61.1 4.65 61.1 2.9L61.1 2.9Q61.1 1.2 60.15 0.4 59.2-0.4 57.2-0.4L57.2-0.4 55.3-0.4Q51.5-0.4 49.75-1.75 48-3.1 48-5.45L48-5.45Q48-6.8 48.72-8.03 49.45-9.25 50.7-10.2L50.7-10.2Q48.65-11.5 47.7-13.3 46.75-15.1 46.75-17.7L46.75-17.7Q46.75-22.05 49.35-24.58 51.95-27.1 56.35-27.1L56.35-27.1Q59.6-27.1 61.72-27.8 63.84-28.5 66.2-29.85L66.2-29.85ZM56.35-23Q54.6-23 53.7-21.75 52.8-20.5 52.8-17.8L52.8-17.8Q52.8-15.25 53.7-13.88 54.6-12.5 56.3-12.5L56.3-12.5Q58.05-12.5 58.9-13.73 59.75-14.95 59.75-17.85L59.75-17.85Q59.75-20.55 58.92-21.78 58.1-23 56.35-23L56.35-23ZM70.49-26.45L76.64-26.45 76.64 0 70.49 0 70.49-26.45ZM73.54-39.65Q75.19-39.65 76.22-38.6 77.24-37.55 77.24-35.9L77.24-35.9Q77.24-34.3 76.22-33.25 75.19-32.2 73.54-32.2L73.54-32.2Q71.89-32.2 70.87-33.25 69.84-34.3 69.84-35.9L69.84-35.9Q69.84-37.55 70.87-38.6 71.89-39.65 73.54-39.65L73.54-39.65ZM91.74-27.15Q96.74-27.15 99.52-23.65 102.29-20.15 102.29-13.25L102.29-13.25Q102.29-6.65 99.49-2.95 96.69 0.75 91.74 0.75L91.74 0.75Q86.79 0.75 83.99-2.88 81.19-6.5 81.19-13.25L81.19-13.25Q81.19-19.95 83.99-23.55 86.79-27.15 91.74-27.15L91.74-27.15ZM91.74-22.5Q89.59-22.5 88.59-20.38 87.59-18.25 87.59-13.25L87.59-13.25Q87.59-8.2 88.59-6.08 89.59-3.95 91.74-3.95L91.74-3.95Q93.89-3.95 94.89-6.08 95.89-8.2 95.89-13.25L95.89-13.25Q95.89-18.3 94.89-20.4 93.89-22.5 91.74-22.5L91.74-22.5ZM128.69 0L122.29 0 122.29-15.5 113.34-15.5 113.34 0 106.99 0 106.99-34.55 113.34-34.55 113.34-20.6 122.29-20.6 122.29-34.55 128.69-34.55 128.69 0ZM143.99-27.15Q146.14-27.15 147.89-26.43 149.64-25.7 151.24-24.15L151.24-24.15 148.59-20.65Q147.49-21.55 146.51-21.98 145.54-22.4 144.39-22.4L144.39-22.4Q142.14-22.4 140.99-20.28 139.84-18.15 139.84-13.1L139.84-13.1Q139.84-8.2 141.01-6.2 142.19-4.2 144.39-4.2L144.39-4.2Q145.49-4.2 146.39-4.6 147.29-5 148.49-5.85L148.49-5.85 151.24-2.3Q148.04 0.75 144.09 0.75L144.09 0.75Q138.99 0.75 136.16-2.73 133.34-6.2 133.34-13L133.34-13Q133.34-17.4 134.64-20.6 135.94-23.8 138.36-25.48 140.79-27.15 143.99-27.15L143.99-27.15ZM171.18-6.4Q171.18-5.1 171.53-4.48 171.88-3.85 172.68-3.45L172.68-3.45 171.43 0.65Q169.38 0.4 168.16-0.45 166.93-1.3 166.33-3.05L166.33-3.05Q164.03 0.75 159.88 0.75L159.88 0.75Q156.58 0.75 154.63-1.48 152.68-3.7 152.68-7.4L152.68-7.4Q152.68-11.7 155.36-13.95 158.03-16.2 163.13-16.2L163.13-16.2 165.18-16.2 165.18-18.05Q165.18-20.55 164.31-21.58 163.43-22.6 161.48-22.6L161.48-22.6Q159.13-22.6 155.63-21.3L155.63-21.3 154.23-25.3Q156.23-26.2 158.38-26.68 160.53-27.15 162.48-27.15L162.48-27.15Q171.18-27.15 171.18-18.35L171.18-18.35 171.18-6.4ZM161.53-3.7Q163.93-3.7 165.18-7L165.18-7 165.18-12.55 163.73-12.55Q161.18-12.55 160.01-11.4 158.83-10.25 158.83-7.85L158.83-7.85Q158.83-5.8 159.53-4.75 160.23-3.7 161.53-3.7L161.53-3.7ZM188.63-27.1Q189.78-27.1 190.68-26.75L190.68-26.75 189.68-20.85Q188.68-21.1 187.83-21.1L187.83-21.1Q185.93-21.1 184.83-19.45 183.73-17.8 183.13-14.55L183.13-14.55 183.13 0 176.98 0 176.98-26.45 182.33-26.45 182.78-21.85Q184.63-27.1 188.63-27.1L188.63-27.1ZM206.48-37.7L212.63-37.05 212.63 0 207.18 0 206.88-3.05Q204.53 0.75 200.83 0.75L200.83 0.75Q196.73 0.75 194.55-2.93 192.38-6.6 192.38-13.2L192.38-13.2Q192.38-17.4 193.5-20.58 194.63-23.75 196.63-25.45 198.63-27.15 201.23-27.15L201.23-27.15Q204.43-27.15 206.48-24.5L206.48-24.5 206.48-37.7ZM202.58-3.9Q203.73-3.9 204.65-4.7 205.58-5.5 206.48-7L206.48-7 206.48-19.85Q204.88-22.55 202.83-22.55L202.83-22.55Q198.78-22.55 198.78-13.25L198.78-13.25Q198.78-8.2 199.78-6.05 200.78-3.9 202.58-3.9L202.58-3.9Z" opacity="1" transform="matrix(1,0,0,1,0,0)" fill="#ffffff" class="wordmark-text-0" data-fill-palette-color="quaternary" id="text-0"></path></svg></g></svg></g></svg></g></svg></g></svg></g><defs></defs></svg><rect width="395.52" height="129.9498773283161" fill="none" stroke="none" visibility="hidden"></rect></g></svg></g></svg>